<?xml version="1.0" encoding="utf-8"?>
<!-- Generator: Adobe Illustrator 21.0.0, SVG Export Plug-In . SVG Version: 6.00 Build 0)  -->
<svg version="1.1" xmlns="http://www.w3.org/2000/svg" xmlns:xlink="http://www.w3.org/1999/xlink" x="0px" y="0px"
	 viewBox="0 0 180 100" style="enable-background:new 0 0 180 100;" xml:space="preserve">
<style type="text/css">
	.st0{fill:#D7000F;}
	.st1{fill:#C9191D;}
</style>
<g id="画板的参考线_2_">
</g>
<g id="画板的参考线_1_">
</g>
<g id="画板的参考线">
</g>
<g id="图层_1">
	<g>
		<g>
			<path class="st0" d="M57.1,10.6c0.1,0.5,0.1,1.1,0.1,1.8c0,0.7-0.1,1.4-0.3,2.1c-0.2,0.7-0.4,1.5-0.7,2.2c-0.3,0.7-0.6,1.4-1.1,2
				c-0.4,0.6-0.9,1.1-1.5,1.4c-0.6,0.4-1.2,0.5-1.9,0.5c-0.2,0-0.4,0-0.6,0c-0.3,0-0.5-0.1-0.8-0.2c-0.3-0.1-0.5-0.3-0.8-0.5
				c-0.2-0.2-0.4-0.5-0.4-0.8c0-0.2,0-0.5,0-0.8c0.1-0.3,0.2-0.6,0.5-1c0.3-0.4,0.5-0.8,0.8-1.3c0.3-0.5,0.6-1,0.8-1.6
				c0.2-0.5,0.4-1.1,0.5-1.6c0.1-0.5,0.1-1,0.1-1.4c-0.1-0.5-0.3-1-0.6-1.3c-0.3-0.3-0.8-0.5-1.4-0.5c-1.4,0.1-2.3,0.6-3.2,1.1
				c-0.9,0.5-1.8,1.2-2.7,2.1c-0.9,0.9-1.8,1.9-2.7,3.1c-0.9,1.2-1.8,2.5-2.6,3.8c-0.8,1.3-1.5,2.8-2.2,4.2
				c-0.7,1.5-1.2,2.9-1.7,4.3c-0.4,1.4-0.7,2.8-0.9,4.1c-0.2,1.3-0.2,2.5,0,3.6c0.2,1.3,0.8,2.4,1.6,3.2c0.8,0.8,2.1,1.2,3.7,1.2
				c9.6-0.7,15.1-9.4,16-9.5c0.1-0.1,0.2-0.1,0.3-0.1c0.3,0,0.5,0.2,0.7,0.7c0.2,0.4,0.3,1,0.4,1.5c0.1,0.3,0.1,0.7,0.1,1.1
				c0,0.4-0.2,1-0.5,1.5c-0.2,0.2-0.5,0.6-0.9,1.2c-0.5,0.6-1,1.2-1.7,1.9c-0.7,0.7-1.5,1.4-2.4,2.2c-0.9,0.8-1.9,1.5-3.1,2.1
				c-1.1,0.6-2.6,1.2-4.4,1.9c-1.8,0.6-3.5,0.9-4.9,0.9c-1.7,0-3.2-0.2-4.5-0.6c-1.3-0.4-2.4-1-3.2-1.7c-0.9-0.7-1.6-1.6-2.1-2.6
				c-0.5-1-0.9-2.1-1.1-3.3c-0.3-1.5-0.3-3.1-0.1-4.8c0.2-1.7,0.5-3.4,1-5.2c0.5-1.8,1.2-3.5,2-5.3c0.8-1.8,1.8-3.4,2.8-5
				c1.1-1.6,2.2-3.1,3.5-4.5c1.3-1.4,2.6-2.6,4-3.6c1.4-1,2.9-1.8,4.4-2.4c1.5-0.6,3-1.1,5.2-1.2c0.8,0,1.5,0.1,2.2,0.3
				c0.7,0.2,1.4,0.5,2,0.8c0.6,0.4,1.1,0.9,1.5,1.5C56.7,9,57,9.7,57.1,10.6z"/>
		</g>
		<path class="st1" d="M115,10.2c0-0.4,0.1-0.9,0.2-1.3c0.2-0.5,0.4-0.9,0.7-1.3c0.3-0.4,0.7-0.8,1.2-1.1c0.5-0.3,1-0.5,1.7-0.6
			c1.1-0.2,1.8-0.1,2.2,0.2c0.4,0.3,0.6,0.8,0.6,1.4c0,0.3-0.1,0.7-0.2,1.2c-0.1,0.4-0.3,0.9-0.6,1.3c-0.3,0.4-0.6,0.8-1.1,1.1
			c-0.4,0.3-1.3,0.5-1.9,0.6c-1.1,0.2-1.6,0.2-2.1-0.1C115.3,11.2,115.1,10.8,115,10.2z"/>
		<path d="M160.8,26.5l-0.9,1.1l-9.7,1.5c-6.4,0.9-13.1,2-19.8,3.2c2.2-4.6,5.1-10.3,9.6-19.3c0.8-1.5,0.5-2,0.1-2.5
			c-0.6-0.4-1.8-0.9-2.8,0.4c-0.2,0.3-0.5,0.9-0.8,1.2c-0.3-0.4-0.6-0.7-1-1c-0.3-0.2-0.8-0.4-1.3-0.6c-0.5-0.1-1.1-0.2-1.8,0
			c-0.5,0.1-1.2,0.3-1.9,0.7c-0.8,0.4-1.6,0.9-2.5,1.5c-0.7,0.5-1.4,1.1-2.2,1.8c-0.1,0.1-0.3,0.3-0.4,0.4c-0.9,0.9-1.7,1.8-2.4,2.9
			c-0.7,1.1-1.3,2.2-1.7,3.5c-0.1,0.4-0.2,0.8-0.3,1.2c-0.3,0.4-0.7,0.8-1.1,1.2c-0.4,0.5-0.9,1-1.4,1.5c-0.5,0.5-1,1-1.5,1.4
			c-0.5,0.4-1,0.8-1.5,1.1c-0.5,0.3-1,0.5-1.5,0.6c-0.4,0.1-0.7,0.1-1,0c-0.2-0.1-0.3-0.4-0.3-0.8c0-0.4,0.1-0.9,0.2-1.4
			c0.2-0.5,0.4-1.1,0.6-1.6c0.2-0.6,0.5-1.1,0.7-1.6c0.3-0.5,0.5-1,0.7-1.5c0.2-0.4,0.3-0.7,0.4-1c0.1-0.3,0.2-0.5,0.4-0.8
			c0.1-0.3,0.3-0.6,0.4-0.9c0.2-0.3,0.3-0.7,0.6-1.2c0.1-0.2,0.1-0.3,0.2-0.5c0.2-0.6,0-1.5-0.6-1.9c-0.5-0.3-1-0.4-1.6-0.3
			c-0.4,0.1-0.8,0.2-1.1,0.5c-0.4,0.3-0.7,0.7-1,1.2c-0.3,0.7-0.6,1.3-0.9,1.9c-0.2,0.5-0.5,1-0.7,1.5c-0.2,0.5-0.4,0.8-0.4,1.1
			c-0.2,0.6-0.5,1.3-0.9,2c-0.3,0.7-0.7,1.4-1,2.2c0,0.1-0.1,0.2-0.1,0.3c-1,0.9-2.6,2.1-6.5,4.5c-0.4,0.3-1.8,1-1.8,0.4
			c0-0.4,0.2-0.7,0.3-1c0.2-0.3,0.4-0.8,0.7-1.3c0.3-0.5,0.6-1.1,1-1.7c0.4-0.6,0.7-1.3,1.1-2c0.4-0.7,0.7-1.4,1-2.1
			c0.3-0.7,0.5-1.4,0.7-2.1c0.2-0.7,0.3-1.3,0.3-1.9c0-1-0.3-1.7-0.9-2c-0.6-0.3-1.3-0.4-2.2-0.2c-0.8,0.1-1.6,0.4-2.5,0.8
			c-0.9,0.4-1.7,0.9-2.6,1.4c-0.8,0.5-1.6,1.1-2.3,1.7c-0.7,0.6-1.2,1.2-1.6,1.7c0.1-0.3,0.4-0.9,0.5-1.3c0.1-0.3,0.4-1.2-0.5-1.9
			c-0.3-0.2-1.1-0.3-1.6-0.2c-0.8,0.2-1.2,0.7-1.5,1.1c-0.4,0.6-0.6,1.1-0.9,1.8c-0.3,0.6-0.6,1.4-1,2.3c-0.4,0.9-0.9,1.9-1.3,2.9
			c-0.5,1-0.9,2.1-1.4,3.1c-0.4,0.8-0.7,1.6-1,2.4c-2.1,1.9-4.3,3.1-4,0.3c0.1-1.1,0.8-3.8,1.4-6.1c0.3-1.4,1-2.8,1.5-4.3
			c0.5-1.5,1-3,1.6-4.4c0.6-1.5,1.1-2.8,1.6-4.1c0.5-1.3,0.9-2.4,1.2-3.4c0.3-1,0.5-1.7,0.5-2.3c0-0.9-0.2-1.7-0.7-2.2
			c-0.5-0.6-1.2-0.7-2-0.6c-0.8,0.2-1.4,0.6-2,1.4c-0.5,0.8-1,1.7-1.4,2.7c-0.4,1-0.8,2.2-1.1,3.4c-0.3,1.2-0.7,2.4-1.2,3.4
			c-0.6,1.6-1.4,3.4-2.4,5.4c-1,2-2,3.9-3.2,5.7c-1.2,1.8-2.5,3.4-3.9,4.7c-1.4,1.4-2.9,2.2-4.4,2.5c-0.5,0.1-0.9,0-1.2-0.4
			c-0.2-0.4-0.4-0.8-0.4-1.4c0-1.3,0.2-2.6,0.6-4c0.4-1.4,0.8-2.8,1.3-4.2c0.5-1.4,1-2.7,1.6-4.1c0.6-1.3,1.1-2.5,1.7-3.7
			c0.5-1.1,2.7-5.1,3.1-6c0.4-0.9,0.6-1.6,0.8-2.1c0.1-0.3,0.1-0.6,0.1-0.9c0-0.4-0.1-0.8-0.3-1.1c-0.2-0.3-0.4-0.5-0.7-0.7
			c-0.3-0.2-0.6-0.2-1-0.3c-0.4,0-0.7,0-1,0.1c-0.8,0.2-1.5,0.6-2.1,1.2c-0.7,0.6-1.2,1.5-1.7,2.8C64.8,14,61.5,20.9,60.5,24
			c-1.1,3.2-1.9,5.7-2.4,7.7c-0.5,2-0.8,3.4-0.9,4.3c-0.1,0.9-0.1,1.3-0.1,1.4c0,1.3,0.2,2.3,0.5,3c0.3,0.8,0.8,1.3,1.3,1.7
			c0.5,0.4,1.2,0.6,1.9,0.6c0.7,0,1.5,0,2.3-0.2c1.7-0.4,3.3-1,4.8-1.9s2.8-2,4-3.2c1.2-1.2,2.2-2.5,3.2-3.9
			c0.9-1.4,1.7-2.7,2.3-3.9c-0.5,1.4-1.1,3.1-1.2,5.1c-0.1,1.9,0.4,2.8,1.1,3.5c0.7,0.6,1.6,0.8,2.8,0.6c1-0.2,2.2-1,3.3-1.9
			c0.1,0.3,0.2,0.5,0.4,0.7c0.3,0.3,0.8,0.4,1.4,0.3c0.6-0.1,1-0.4,1.4-0.8c0.4-0.4,0.7-0.9,1-1.5c0.3-0.6,0.6-1.2,0.9-1.9
			c0.3-0.7,0.6-1.3,0.9-1.9c0.5-0.9,1.2-2,1.9-3.1c0.7-1.2,1.5-2.3,2.3-3.4c0.8-1.1,1.7-2,2.7-2.8c1-0.8,2-1.3,3.1-1.5
			c0.3-0.1,0.5,0,0.6,0.2c0.1,0.2,0.2,0.4,0.2,0.6c0,0.3-0.1,0.7-0.3,1.2c-0.2,0.5-0.5,1.1-0.8,1.7c-0.3,0.6-0.7,1.3-1.1,2
			c-0.4,0.7-0.7,1.4-1.1,2.1c-0.3,0.7-0.6,1.4-0.9,2.1c-0.2,0.7-0.4,1.3-0.4,1.8c0,0.1,0,0.3,0,0.4c0,0.1,0,0.2,0,0.3
			c0,0.9,0.2,1.5,0.6,2c0.4,0.4,1.1,0.6,1.9,0.4c0.3-0.1,0.6-0.1,1-0.3c0.4-0.1,0.8-0.3,1.2-0.5c1.3-0.6,2.4-1.2,3.3-1.8
			c0.9-0.6,1.8-1.2,2.7-1.9c0.5-0.4,1-0.8,1.6-1.3c0.1,1.3,0.4,2.2,1.2,2.7c0.8,0.6,1.8,0.7,3.2,0.5c1-0.2,1.9-0.5,2.8-1.1
			c0.9-0.5,1.9-1.2,2.8-2c0.9-0.8,1.8-1.6,2.7-2.6c0.2-0.2,0.3-0.4,0.5-0.5c0,0.3,0.1,0.5,0.2,0.8c0.2,0.7,0.5,1.3,0.9,1.8
			c0.4,0.5,0.9,0.8,1.5,1.1c0.6,0.2,1.3,0.3,2.1,0.1c0.6-0.1,1.2-0.4,1.8-0.7c0.6-0.4,1.1-0.9,1.7-1.4c-0.8,1.6-1.5,3.1-2.2,4.6
			c-39.1,7.6-77.4,19.6-77.4,19.6c-2.8,0.9-6.6,1.8-6.6,1.8C41.7,55.5,41,57,41,57c-0.4,0.8-0.7,1.8-0.5,1.6
			c0.4-0.3-0.1,0.6-0.1,0.6c-0.2,0.4-0.4,1.1-0.4,1.1c-0.4,1.3,1.6,0.1,1.6,0.1c1.9-1,4.8-2.3,6.4-2.9c2.5-1,10.1-3.7,10.1-3.7
			C83,44.7,106.9,39,125.6,35.5c-4.6,10-6.8,16.1-8.7,23.7c-0.2,0.7-0.3,1.6-0.6,2.5c0,0-0.5,2-0.1,3.3c0,0,0.3,4.7,7.1-1.2
			c0,0,3.7-3.2,5.3-7.5c0,0,0.8-1.9-1.1,0.2c0,0-2.3,2.7-6,4.2c0,0-0.9,0.5-0.4-2.1c0.2-0.8,0.6-2.7,0.8-3.5
			c2.9-9.6,4.5-14.1,7.4-20.4c20.4-3.6,33.7-4.6,33.7-4.6C166.5,29.8,160.8,26.5,160.8,26.5z M128.3,25.2c-0.6,0.5-1.2,0.7-1.8,0.8
			c-0.4,0.1-0.8,0-1-0.3c-0.2-0.3-0.4-0.8-0.4-1.5c0-0.9,0.2-1.9,0.5-3c0.4-1.1,0.8-2.1,1.5-3c0.6-0.9,1.3-1.7,2.2-2.4
			c0.8-0.7,1.7-1.1,2.7-1.3c0.5-0.1,1-0.1,1.3,0c0.4,0.1,0.6,0.3,0.9,0.5c0.3,0.2,0.4,0.5,0.6,0.8c-0.9,1.7-1.7,3.1-2.4,4.3
			c-0.8,1.2-1.5,2.3-2.1,3.1C129.6,24.1,128.9,24.7,128.3,25.2z"/>
		<g>
			<path d="M5.6,77.7h4.5c2.8,0,4.7,0.8,3.9,3.4c-0.4,1.3-1.5,2.5-2.8,3l0,0.1c1.4,0.4,2.1,1.4,1.5,3.2c-0.9,2.7-3.6,4-6.6,4H1.2
				L5.6,77.7z M6.5,89.2c1.9,0,3.1-0.7,3.5-2.1c0.4-1.3-0.4-1.9-2.3-1.9H5.9l-1.3,4H6.5z M8.1,83.2c1.7,0,2.7-0.7,3.1-1.8
				c0.4-1.2-0.3-1.7-1.9-1.7H7.6l-1.1,3.5H8.1z"/>
			<path d="M14.4,86.2c1.1-3.4,4.1-5.4,6.6-5.4c2.8,0,3.6,2.1,2.7,4.9c-0.2,0.5-0.4,1-0.5,1.2h-6.4c-0.3,1.7,0.5,2.6,2,2.6
				c0.8,0,1.7-0.3,2.6-0.7l0.4,1.7c-1.2,0.7-2.7,1.1-4,1.1C14.9,91.6,13.3,89.6,14.4,86.2z M21.5,85.1c0.4-1.4,0.1-2.3-1.2-2.3
				c-1.1,0-2.3,0.8-3,2.3H21.5z"/>
			<path d="M32.5,77.7H37c2.8,0,4.7,0.8,3.9,3.4c-0.4,1.3-1.5,2.5-2.8,3l0,0.1c1.4,0.4,2.1,1.4,1.5,3.2c-0.9,2.7-3.6,4-6.6,4h-4.9
				L32.5,77.7z M33.4,89.2c1.9,0,3.1-0.7,3.5-2.1c0.4-1.3-0.4-1.9-2.3-1.9h-1.9l-1.3,4H33.4z M35,83.2c1.7,0,2.7-0.7,3.1-1.8
				c0.4-1.2-0.3-1.7-1.9-1.7h-1.6l-1.1,3.5H35z"/>
			<path d="M41.3,86.2c1.1-3.4,4.1-5.4,6.6-5.4c2.8,0,3.6,2.1,2.7,4.9c-0.2,0.5-0.4,1-0.5,1.2h-6.4c-0.3,1.7,0.5,2.6,2,2.6
				c0.8,0,1.7-0.3,2.6-0.7l0.4,1.7c-1.2,0.7-2.7,1.1-4,1.1C41.8,91.6,40.2,89.6,41.3,86.2z M48.4,85.1c0.4-1.4,0.1-2.3-1.2-2.3
				c-1.1,0-2.3,0.8-3,2.3H48.4z"/>
			<path d="M52.1,87.7l1.5-4.6h-1.5l0.6-2l1.6-0.1l1.2-2.8h2.3L57,81h2.5l-0.7,2.1h-2.5l-1.5,4.6c-0.4,1.2-0.1,1.7,0.8,1.7
				c0.3,0,0.8-0.1,1.1-0.2l-0.2,2c-0.6,0.2-1.4,0.4-2.3,0.4C51.8,91.6,51.4,90,52.1,87.7z"/>
			<path d="M59.3,87.7l1.5-4.6h-1.5l0.6-2l1.6-0.1l1.2-2.8H65L64.1,81h2.5L66,83.2h-2.5L62,87.7c-0.4,1.2-0.1,1.7,0.8,1.7
				c0.3,0,0.8-0.1,1.1-0.2l-0.2,2c-0.6,0.2-1.4,0.4-2.3,0.4C59,91.6,58.5,90,59.3,87.7z"/>
			<path d="M65.9,86.2c1.1-3.4,4.1-5.4,6.6-5.4c2.8,0,3.6,2.1,2.7,4.9c-0.2,0.5-0.4,1-0.5,1.2h-6.4c-0.3,1.7,0.5,2.6,2,2.6
				c0.8,0,1.7-0.3,2.6-0.7l0.4,1.7c-1.2,0.7-2.7,1.1-4,1.1C66.4,91.6,64.8,89.6,65.9,86.2z M73.1,85.1c0.4-1.4,0.1-2.3-1.2-2.3
				c-1.1,0-2.3,0.8-3,2.3H73.1z"/>
			<path d="M78.8,81H81l-0.4,1.8h0.1c1.2-1.3,2.5-2.1,3.6-2.1c0.6,0,0.9,0.1,1.1,0.2l-1.2,2.3c-0.3-0.1-0.6-0.2-1-0.2
				c-0.8,0-2,0.5-3,2l-2,6.2h-2.7L78.8,81z"/>
			<path d="M91.9,77.7h4.5c2.8,0,4.7,0.8,3.9,3.4c-0.4,1.3-1.5,2.5-2.8,3l0,0.1c1.4,0.4,2.1,1.4,1.5,3.2c-0.9,2.7-3.6,4-6.6,4h-4.9
				L91.9,77.7z M92.8,89.2c1.9,0,3.1-0.7,3.5-2.1c0.4-1.3-0.4-1.9-2.3-1.9h-1.9l-1.3,4H92.8z M94.4,83.2c1.7,0,2.7-0.7,3.1-1.8
				c0.4-1.2-0.3-1.7-1.9-1.7H94l-1.1,3.5H94.4z"/>
			<path d="M100.7,86.2c1.1-3.4,4.1-5.4,6.6-5.4c2.8,0,3.6,2.1,2.7,4.9c-0.2,0.5-0.4,1-0.5,1.2h-6.4c-0.3,1.7,0.5,2.6,2,2.6
				c0.8,0,1.7-0.3,2.6-0.7l0.4,1.7c-1.2,0.7-2.7,1.1-4,1.1C101.2,91.6,99.6,89.6,100.7,86.2z M107.8,85.1c0.4-1.4,0.1-2.3-1.2-2.3
				c-1.1,0-2.3,0.8-3,2.3H107.8z"/>
			<path d="M116.3,85.2l2.4-7.5h2.7l-2.5,7.7c-0.9,2.8-0.2,3.8,1.4,3.8c1.6,0,3-1,3.9-3.8l2.5-7.7h2.6l-2.4,7.5
				c-1.5,4.5-4,6.4-7.3,6.4C116.3,91.6,114.9,89.7,116.3,85.2z"/>
			<path d="M131.1,81h2.2l-0.3,1.4h0.1c1.2-0.9,2.5-1.6,3.9-1.6c2.2,0,2.7,1.5,1.9,4.1l-2.1,6.4h-2.7l2-6.1c0.5-1.6,0.2-2.2-0.8-2.2
				c-0.8,0-1.5,0.4-2.5,1.2l-2.3,7.1h-2.7L131.1,81z"/>
			<path d="M142.8,81h2.7l-3.3,10.3h-2.7L142.8,81z M143.5,77.9c0.3-0.9,1.2-1.5,2.1-1.5c0.9,0,1.4,0.6,1.1,1.5
				c-0.3,0.8-1.2,1.5-2.1,1.5C143.7,79.4,143.3,78.7,143.5,77.9z"/>
			<path d="M150.9,92l0.6-1.7c-0.9,0.7-2.1,1.2-3.1,1.2c-2.6,0-3.6-2-2.5-5.4s3.8-5.4,6.1-5.4c1.1,0,1.8,0.4,2.4,1.3h0.1l0.5-1h2.1
				l-4.6,14.3h-2.7L150.9,92z M152.1,88.3l1.5-4.5c-0.4-0.6-1-0.8-1.7-0.8c-1.2,0-2.5,1.1-3.2,3.2c-0.7,2.1-0.3,3.2,1.1,3.2
				C150.6,89.4,151.3,89.1,152.1,88.3z"/>
			<path d="M157.7,87.5l2.1-6.5h2.7l-2,6.1c-0.5,1.6-0.2,2.2,0.7,2.2c0.8,0,1.5-0.4,2.5-1.3l2.2-7h2.7l-3.3,10.3h-2.2l0.3-1.5h-0.1
				c-1.2,1.1-2.4,1.7-3.9,1.7C157.4,91.6,156.9,90,157.7,87.5z"/>
			<path d="M169.2,86.2c1.1-3.4,4.1-5.4,6.6-5.4c2.8,0,3.6,2.1,2.7,4.9c-0.2,0.5-0.4,1-0.5,1.2h-6.4c-0.3,1.7,0.5,2.6,2,2.6
				c0.8,0,1.7-0.3,2.6-0.7l0.4,1.7c-1.2,0.7-2.7,1.1-4,1.1C169.7,91.6,168.1,89.6,169.2,86.2z M176.3,85.1c0.4-1.4,0.1-2.3-1.2-2.3
				c-1.1,0-2.3,0.8-3,2.3H176.3z"/>
		</g>
	</g>
</g>
</svg>
